HIERARCHY
ROOT Hips
{
	OFFSET	0.00	0.00	0.00
	CHANNELS 6 Xposition Yposition Zposition Zrotation Xrotation Yrotation
	JOINT LeftUpLeg
	{
		OFFSET	 0.126116	-0.014019	-0.065224
		CHANNELS 3 Zrotation Xrotation Yrotation
		JOINT LeftLeg
		{
			OFFSET	 0.000000	 0.000000	 0.569914
			CHANNELS 3 Zrotation Xrotation Yrotation
			JOINT LeftFoot
			{
				OFFSET	 0.000000	 0.000000	 0.544423
				CHANNELS 3 Zrotation Xrotation Yrotation
				JOINT LeftToeBase
				{
					OFFSET	 0.000000	 0.000000	 0.207117
					CHANNELS 3 Zrotation Xrotation Yrotation
					End Site
					{
						OFFSET	 0.000000	 0.000000	 0.207117
					}
				}
			}
		}
	}
	JOINT RightUpLeg
	{
		OFFSET	-0.124023	-0.008373	-0.065224
		CHANNELS 3 Zrotation Xrotation Yrotation
		JOINT RightLeg
		{
			OFFSET	 0.000000	 0.000000	 0.570047
			CHANNELS 3 Zrotation Xrotation Yrotation
			JOINT RightFoot
			{
				OFFSET	 0.000000	 0.000000	 0.544354
				CHANNELS 3 Zrotation Xrotation Yrotation
				JOINT RightToeBase
				{
					OFFSET	 0.000000	 0.000000	 0.207540
					CHANNELS 3 Zrotation Xrotation Yrotation
					End Site
					{
						OFFSET	 0.000000	 0.000000	 0.207540
					}
				}
			}
		}
	}
	JOINT Spine
	{
		OFFSET	 0.000184	-0.007763	 0.117403
		CHANNELS 3 Zrotation Xrotation Yrotation
		JOINT Spine1
		{
			OFFSET	 0.000000	 0.000000	 0.137269
			CHANNELS 3 Zrotation Xrotation Yrotation
			JOINT Spine2
			{
				OFFSET	 0.000000	 0.000000	 0.156879
				CHANNELS 3 Zrotation Xrotation Yrotation
				JOINT LeftShoulder
				{
					OFFSET	 0.080501	-0.002496	 0.160144
					CHANNELS 3 Zrotation Xrotation Yrotation
					JOINT LeftArm
					{
						OFFSET	 0.000000	 0.000000	 0.164363
						CHANNELS 3 Zrotation Xrotation Yrotation
						JOINT LeftForeArm
						{
							OFFSET	 0.000000	 0.000000	 0.364576
							CHANNELS 3 Zrotation Xrotation Yrotation
							JOINT LeftHand
							{
								OFFSET	 0.000000	 0.000000	 0.360812
								CHANNELS 3 Zrotation Xrotation Yrotation
								JOINT LeftHandIndex1
								{
									OFFSET	 0.000000	 0.000000	 0.086006
									CHANNELS 3 Zrotation Xrotation Yrotation
									JOINT LeftHandIndex2
									{
										OFFSET	 0.000000	 0.000000	 0.047236
										CHANNELS 3 Zrotation Xrotation Yrotation
										JOINT LeftHandIndex3
										{
											OFFSET	-0.004284	-0.000551	 0.038166
											CHANNELS 3 Zrotation Xrotation Yrotation
											End Site
											{
												OFFSET	-0.004284	-0.000551	 0.038166
											}
										}
									}
								}
							}
						}
					}
				}
				JOINT Neck
				{
					OFFSET	 0.000000	 0.000000	 0.176489
					CHANNELS 3 Zrotation Xrotation Yrotation
					JOINT Head
					{
						OFFSET	 0.000000	-0.001747	 0.077940
						CHANNELS 3 Zrotation Xrotation Yrotation
						End Site
						{
							OFFSET	 0.000000	-0.001747	 0.077940
						}
					}
				}
				JOINT RightShoulder
				{
					OFFSET	-0.080363	 0.000306	 0.159706
					CHANNELS 3 Zrotation Xrotation Yrotation
					JOINT RightArm
					{
						OFFSET	 0.000000	 0.000000	 0.164196
						CHANNELS 3 Zrotation Xrotation Yrotation
						JOINT RightForeArm
						{
							OFFSET	 0.000000	 0.000000	 0.365611
							CHANNELS 3 Zrotation Xrotation Yrotation
							JOINT RightHand
							{
								OFFSET	 0.000000	 0.000000	 0.360648
								CHANNELS 3 Zrotation Xrotation Yrotation
								JOINT RightHandIndex1
								{
									OFFSET	 0.000000	 0.000000	 0.069977
									CHANNELS 3 Zrotation Xrotation Yrotation
									JOINT RightHandIndex2
									{
										OFFSET	 0.000000	 0.000000	 0.052305
										CHANNELS 3 Zrotation Xrotation Yrotation
										JOINT RightHandIndex3
										{
											OFFSET	 0.009002	-0.000782	 0.042196
											CHANNELS 3 Zrotation Xrotation Yrotation
											End Site
											{
												OFFSET	 0.009002	-0.000782	 0.042196
											}
										}
									}
								}
							}
						}
					}
				}
			}
		}
	}
}
MOTION
Frames:    13
Frame Time: 0.03333334
-0.082396	 6.790499	 1.253632	-95.179330	 1.752044	 1.450833	-20.265400	-7.483704	 177.158000	 17.980040	-41.260580	 5.917609	-94.516620	 73.329160	 72.477960	-2.202179	 46.697840	-0.472374	 2.157740	-7.416554	-170.650000	-8.273997	-37.439570	-0.111597	 49.521950	 75.005960	-35.222330	 1.962917	 56.271880	 0.848187	-42.882680	 5.892963	 1.604302	-2.715951	 6.418026	-5.481846	 7.802968	-21.968360	 7.001229	-91.229270	 83.958370	 178.242600	 36.856030	 52.690460	-63.596880	-7.523661	 2.060424	-8.478713	 8.726491	 2.627850	-11.637890	-11.572470	 9.736596	-25.659570	-5.213937	-0.202400	 3.566957	-1.378229	 35.397820	-2.634230	-0.534151	 4.481876	 1.257781	-3.333563	-14.031600	-12.701920	 87.726590	 87.418960	-176.798600	-9.182498	 67.254880	 9.567031	 7.262450	 2.026294	 8.509511	-1.383057	-5.419999	 11.810060	-1.437303	 24.492080	-62.113260	 5.070519	-0.690904	-9.399550	-2.350882	 35.473990	 5.254307
-0.077476	 6.833547	 1.256853	-85.964290	 3.380095	 2.446214	-23.441050	-10.291170	 174.411500	 20.034180	-43.626800	 7.628921	-86.615590	 72.214390	 64.795750	-2.277955	 41.672150	-0.321406	-6.335692	-5.499290	-172.500300	-4.221949	-33.128690	 2.116510	 41.077160	 78.012270	-28.294320	 2.029618	 54.140130	 0.751760	-40.032050	 4.979805	 1.014333	-3.716169	 9.297469	-6.694619	 13.984610	-26.007070	 10.246020	-91.229260	 83.958310	 178.242600	 22.009590	 56.580420	-46.959120	 0.086316	 0.620419	-5.265841	 3.677978	-1.813498	-8.577227	-11.097810	 8.569948	-23.071900	-5.213937	-0.202400	 3.566957	-1.378229	 35.397820	-2.634230	 5.420411	 7.406010	-5.927003	 2.920452	-20.364310	-1.598806	 87.726790	 87.418890	-176.798800	-7.385420	 65.819360	 8.203686	 1.567769	 0.594838	 5.310989	-1.599649	-4.299394	 11.504210	-0.397797	 26.121700	-62.459810	 5.070519	-0.690904	-9.399550	-2.350882	 35.473990	 5.254307
-0.076113	 6.844793	 1.257298	-83.892220	 3.364895	 2.593246	-23.178340	-10.714690	 173.844400	 20.186390	-44.244270	 7.821953	-85.069350	 72.056310	 63.486610	-2.274174	 41.966920	-0.329676	-8.379586	-4.672945	-172.878700	-3.126602	-32.086020	 2.641430	 40.375870	 79.007380	-28.141800	 2.092769	 51.787590	 0.655381	-38.391690	 5.011548	 0.986812	-3.968458	 10.328790	-7.045683	 15.627930	-26.602070	 11.226270	-91.229200	 83.958340	 178.242500	 16.342140	 56.764390	-41.535270	 1.053963	 0.337669	-4.277713	 0.851833	-2.979707	-7.692197	-10.958490	 8.621548	-22.627630	-5.213937	-0.202400	 3.566957	-1.378229	 35.397820	-2.634230	 6.975657	 8.250199	-7.357298	 4.716692	-21.904260	 1.413051	 87.726790	 87.418890	-176.798800	-7.494259	 65.360150	 9.127001	 0.576188	 0.310498	 4.324256	-1.146883	-3.895724	 11.469310	-0.895847	 25.473720	-62.889960	 5.070519	-0.690904	-9.399550	-2.350882	 35.473990	 5.254307
-0.070984	 6.871601	 1.257926	-79.110280	 4.003168	 2.998456	-24.247940	-12.340320	 172.575000	 21.547660	-45.751810	 9.023273	-79.209850	 71.026370	 58.058190	-2.406482	 21.146580	 0.151395	-13.280360	-3.665576	-173.946200	-0.623319	-29.756080	 3.721864	 34.111370	 80.945290	-23.248870	 2.170272	 48.285420	 0.527532	-33.211430	 4.762199	 0.451824	-4.442019	 12.232540	-7.126366	 18.518170	-27.757140	 12.517170	-91.229190	 83.958270	 178.242500	 4.220501	 55.933880	-30.117660	 2.252136	-0.074143	-1.878832	-6.079504	-5.592162	-6.351494	-10.491280	 9.042815	-21.296800	-5.213937	-0.202400	 3.566957	-1.378229	 35.397820	-2.634230	 10.180330	 9.545353	-10.129010	 8.539745	-23.965760	 7.506409	 87.727010	 87.418820	-176.799000	-4.418083	 65.906890	 3.744978	-2.975811	-4.080423	 11.812730	-0.165011	-3.825233	 10.960840	-0.775728	 25.740720	-63.328290	 5.070519	-0.690904	-9.399550	-2.350882	 35.473990	 5.254307
-0.064332	 6.897313	 1.257515	-73.902320	 5.079930	 2.723454	-20.912050	-15.850320	 171.332700	 20.084800	-47.456490	 8.177694	-75.923120	 72.709610	 55.495080	-2.366750	 32.047940	-0.079764	-16.289780	-3.231580	-174.659600	 0.855612	-27.787580	 4.197226	 38.020970	 84.492990	-27.641600	 2.313475	 38.399110	 0.235319	-26.301570	 4.702837	 0.312450	-5.148093	 13.209310	-7.800240	 21.492280	-28.025450	 14.207220	-91.229260	 83.958310	 178.242600	-7.132953	 53.534470	-19.527470	 4.239026	-0.200199	-1.636115	-12.251410	-8.562927	-5.819307	-9.976675	 8.906948	-19.386890	-5.213937	-0.202400	 3.566957	-1.378229	 35.397820	-2.634230	 12.908740	 11.003900	-11.970330	 11.885460	-25.161550	 13.038800	 87.727010	 87.419040	-176.799000	-1.833009	 65.968240	 0.586807	-5.229331	-8.338493	 19.295810	 1.494413	-3.619199	 10.570690	-0.469901	 26.352020	-64.195250	 5.070519	-0.690904	-9.399550	-2.350882	 35.473990	 5.254307
-0.060387	 6.916519	 1.256646	-70.086000	 5.508376	 3.078457	-18.520210	-17.969190	 170.291400	 19.316660	-48.671990	 7.747299	-74.435250	 74.019150	 54.191360	-2.373909	 30.837090	-0.052413	-19.129660	-2.383335	-175.708900	 2.072551	-26.138860	 4.515490	 35.094540	 86.261680	-25.409420	 2.335141	 36.097790	 0.177256	-20.472880	 5.152928	-0.372749	-5.542762	 13.766390	-7.958223	 23.068020	-28.234720	 14.761360	-91.229260	 83.958340	 178.242600	-12.420080	 51.307690	-14.167800	 6.858592	-0.490743	-3.585299	-14.971530	-10.065810	-5.696955	-10.210610	 8.930404	-20.228780	-5.213937	-0.202400	 3.566957	-1.378229	 35.397820	-2.634230	 14.359600	 11.015390	-12.517580	 13.481130	-24.760780	 15.511600	 87.727130	 87.418960	-176.799100	 1.333028	 65.928740	-2.167127	-6.946516	-11.766720	 25.681570	 2.802388	-3.964790	 10.130410	-0.062021	 26.862350	-63.806450	 5.070519	-0.690904	-9.399550	-2.350882	 35.473990	 5.254307
-0.054500	 6.941536	 1.255190	-65.682980	 6.282242	 3.239303	-13.625310	-21.149670	 169.745000	 17.264890	-49.806240	 6.294581	-73.319850	 76.510040	 53.331690	-2.365958	 32.173620	-0.082640	-23.902660	-2.458725	-177.105200	 4.363931	-25.186040	 5.349291	 14.437010	 87.635540	-6.376410	 2.357921	 33.153870	 0.106800	-11.314510	 5.438313	-1.025970	-5.591131	 13.890620	-8.018564	 23.817780	-27.868040	 14.838340	-91.229180	 83.958370	 178.242500	-16.910010	 49.226350	-9.439584	 12.432440	-1.259677	-6.098943	-15.948680	-11.060650	-5.128621	-10.741960	 6.935693	-20.736720	-5.213937	-0.202400	 3.566957	-1.378229	 35.397820	-2.634230	 15.136520	 11.653730	-12.555970	 14.757550	-24.856420	 18.510020	 87.726710	 87.418960	-176.798700	 2.296580	 65.444500	-1.840649	-8.914585	-16.221980	 32.212260	 3.591264	-3.804200	 9.842575	-1.055242	 25.533000	-64.288290	 5.070519	-0.690904	-9.399550	-2.350882	 35.473990	 5.254307
-0.050679	 6.958045	 1.253905	-62.591400	 6.499622	 3.162069	-10.190890	-22.761980	 170.185400	 16.242150	-50.175010	 5.537056	-71.084950	 77.815280	 51.105140	-2.399945	 24.443220	 0.084536	-27.173270	-2.660586	-177.994500	 6.352749	-25.288220	 6.278523	-64.029730	 89.236640	 70.710160	 2.389186	 27.302960	-0.023322	-4.031193	 5.830436	-0.992973	-5.591805	 14.229800	-8.663033	 24.440960	-27.758040	 15.510460	-91.229290	 83.958370	 178.242600	-18.588170	 48.251940	-6.987929	 16.904450	-2.089171	-7.874251	-15.790180	-11.081610	-4.601399	-10.547290	 6.688378	-19.935090	-5.213937	-0.202400	 3.566957	-1.378229	 35.397820	-2.634230	 15.555390	 12.056870	-12.833940	 15.417570	-25.224200	 19.936380	 87.727040	 87.418960	-176.799000	 3.854716	 65.668980	-2.459944	-10.811000	-19.973670	 36.081390	 3.838353	-4.087888	 9.465720	-1.523681	 24.787250	-63.970420	 5.070519	-0.690904	-9.399550	-2.350882	 35.473990	 5.254307
-0.046207	 6.978095	 1.252424	-58.055410	 6.719096	 2.669245	-5.966009	-24.628120	 171.339900	 14.106220	-50.249790	 3.893104	-67.889370	 79.952220	 48.087080	-2.396227	 25.712900	 0.058194	-31.376670	-3.545892	-178.575000	 8.650218	-26.653320	 7.684558	-136.344700	 86.951230	 141.648000	 2.405038	 21.275260	-0.147673	 4.907434	 6.323817	-0.719565	-5.497740	 14.510680	-8.636035	 24.248080	-28.367240	 15.571270	-91.229200	 83.958340	 178.242500	-18.242080	 47.457930	-6.028253	 21.591940	-3.309629	-9.824997	-14.396750	-10.404460	-4.111009	-9.628555	 8.205873	-17.730660	-5.213937	-0.202400	 3.566957	-1.378229	 35.397820	-2.634230	 15.481910	 12.112070	-13.537220	 15.601740	-25.447510	 20.959930	 87.726750	 87.418960	-176.798700	 5.633900	 66.080940	-3.657476	-13.283140	-24.160860	 39.091500	 3.874955	-4.531003	 8.980581	-1.571932	 24.466740	-62.874570	 5.070519	-0.690904	-9.399550	-2.350882	 35.473990	 5.254307
-0.042666	 6.996253	 1.250896	-52.741890	 6.925045	 2.160986	-1.294640	-26.443000	 172.737200	 11.630460	-50.313290	 1.987933	-70.125510	 83.106020	 50.283870	-2.346561	 34.918710	-0.146922	-35.474820	-4.545484	-179.160000	 10.840410	-28.547780	 9.308368	-147.893700	 84.223350	 151.998000	 2.407673	 17.765960	-0.217108	 12.744650	 6.700544	-0.491185	-5.672900	 14.673010	-8.264688	 23.840500	-28.811070	 15.318110	-91.229210	 83.958370	 178.242500	-16.617990	 47.462710	-6.484526	 25.857650	-4.697345	-11.530570	-12.289780	-9.224452	-3.769688	-9.663544	 9.449845	-18.620760	-5.213937	-0.202400	 3.566957	-1.378229	 35.397820	-2.634230	 15.184480	 12.033150	-13.980010	 15.617370	-25.596780	 22.039610	 87.726920	 87.418890	-176.798900	 5.028025	 66.670340	-2.991613	-14.961070	-27.338920	 41.035260	 3.839685	-4.388131	 8.845936	-2.408773	 23.319320	-63.302550	 5.070519	-0.690904	-9.399550	-2.350882	 35.473990	 5.254307
-0.040874	 7.017626	 1.247537	-44.229800	 6.655532	 1.772022	 11.715490	-28.528690	 174.927000	 3.209378	-53.282600	-4.686025	-138.052600	 87.879560	 120.573700	-2.354142	 33.917550	-0.123106	-42.720180	-4.520287	-179.837400	 13.231970	-29.985750	 11.038820	-158.784200	 81.571930	 161.344500	 2.396996	 9.596617	-0.374383	 23.159150	 6.945831	-0.377835	-5.276424	 14.755140	-7.885858	 22.506630	-28.620690	 14.655770	-91.229330	 83.958310	 178.242600	-12.468610	 50.478810	-9.513350	 31.501260	-7.070960	-13.733730	-8.398213	-7.280984	-3.550330	-10.186100	 7.756824	-19.381670	-5.213937	-0.202400	 3.566957	-1.378229	 35.397820	-2.634230	 14.335700	 12.861750	-13.806840	 15.269330	-26.636320	 23.131870	 87.726970	 87.419040	-176.798900	 2.227399	 66.917090	 0.360469	-19.741530	-30.566690	 39.959010	 2.213139	-3.655552	 8.764252	-0.764717	 25.125100	-60.360380	 5.070519	-0.690904	-9.399550	-2.350882	 35.473990	 5.254307
-0.040909	 7.019452	 1.247166	-43.208810	 6.599838	 1.747155	 13.899740	-28.738070	 175.144200	 2.020436	-53.742240	-5.676745	-153.483300	 87.833820	 136.414000	-2.361580	 32.849530	-0.098179	-43.209840	-4.438657	-179.955500	 13.300460	-30.125550	 11.122430	-160.898000	 80.687490	 163.481200	 2.390915	 7.577957	-0.412898	 24.281820	 6.977974	-0.335963	-5.140093	 14.729450	-7.896433	 22.244180	-28.656220	 14.576790	-91.229270	 83.958340	 178.242600	-11.773570	 51.064440	-10.009410	 32.144310	-7.369600	-13.965470	-7.868165	-7.018258	-3.549483	-10.202270	 7.636402	-19.361920	-5.213937	-0.202400	 3.566957	-1.378229	 35.397820	-2.634230	 14.155160	 12.850130	-13.738280	 15.117750	-26.704270	 23.023860	 87.726850	 87.419040	-176.798800	 1.880368	 67.029610	 0.683914	-20.661180	-30.915200	 39.523060	 1.835680	-3.604600	 8.719879	-0.741730	 25.191740	-60.499710	 5.070519	-0.690904	-9.399550	-2.350882	 35.473990	 5.254307
-0.041264	 7.025374	 1.245596	-38.413040	 6.297737	 1.424960	 23.542170	-29.217280	 176.318500	-3.408490	-55.786490	-10.352150	 165.639000	 86.340390	 178.994500	-2.393307	 26.577000	 0.040050	-46.142500	-4.327840	-179.939800	 14.030020	-30.939430	 11.803860	-167.163600	 77.112840	 169.468000	 2.361498	 0.949855	-0.540293	 28.197590	 6.995798	-0.068844	-4.622613	 14.647390	-7.372107	 20.931600	-28.796830	 13.897270	-91.229270	 83.958340	 178.242600	-8.615602	 53.721430	-12.242500	 34.845250	-8.659415	-14.874110	-5.516448	-5.976346	-3.573758	-10.150310	 7.630630	-19.181240	-5.213937	-0.202400	 3.566957	-1.378229	 35.397820	-2.634230	 13.261170	 12.411320	-13.005480	 14.103540	-26.707100	 21.774150	 87.726980	 87.419040	-176.799000	-0.418868	 68.034380	 3.122053	-25.316120	-31.672590	 36.684930	-0.091950	-3.353296	 8.550594	-1.468359	 24.337630	-61.657740	 5.070519	-0.690904	-9.399550	-2.350882	 35.473990	 5.254307
